<mxfile host="app.diagrams.net" agent="Mozilla/5.0 (Windows NT 10.0; Win64; x64) AppleWebKit/537.36 (KHTML, like Gecko) Chrome/138.0.0.0 Safari/537.36" version="28.0.6">
  <diagram name="Page-1" id="PjodYGijWNihMrMPfalh">
    <mxGraphModel dx="1603" dy="874" grid="1" gridSize="5" guides="1" tooltips="1" connect="1" arrows="1" fold="1" page="1" pageScale="1" pageWidth="3300" pageHeight="4681" math="0" shadow="0">
      <root>
        <mxCell id="0" />
        <mxCell id="1" parent="0" />
        <mxCell id="qc5_DZCvJroy2IHC4gfx-74" value="" style="rounded=0;whiteSpace=wrap;html=1;fillColor=none;fontStyle=1" vertex="1" parent="1">
          <mxGeometry x="20" y="80" width="980" height="225" as="geometry" />
        </mxCell>
        <mxCell id="qc5_DZCvJroy2IHC4gfx-68" value="" style="rounded=0;whiteSpace=wrap;html=1;fillColor=none;fontStyle=1" vertex="1" parent="1">
          <mxGeometry x="20" y="330" width="980" height="605" as="geometry" />
        </mxCell>
        <mxCell id="qc5_DZCvJroy2IHC4gfx-5" style="edgeStyle=orthogonalEdgeStyle;rounded=0;orthogonalLoop=1;jettySize=auto;html=1;exitX=0.25;exitY=1;exitDx=0;exitDy=0;entryX=0.5;entryY=0;entryDx=0;entryDy=0;fontStyle=1" edge="1" parent="1" source="qc5_DZCvJroy2IHC4gfx-1" target="qc5_DZCvJroy2IHC4gfx-2">
          <mxGeometry relative="1" as="geometry" />
        </mxCell>
        <mxCell id="qc5_DZCvJroy2IHC4gfx-6" style="edgeStyle=orthogonalEdgeStyle;rounded=0;orthogonalLoop=1;jettySize=auto;html=1;exitX=0.5;exitY=1;exitDx=0;exitDy=0;entryX=0.5;entryY=0;entryDx=0;entryDy=0;fontStyle=1" edge="1" parent="1" source="qc5_DZCvJroy2IHC4gfx-1" target="qc5_DZCvJroy2IHC4gfx-3">
          <mxGeometry relative="1" as="geometry" />
        </mxCell>
        <mxCell id="qc5_DZCvJroy2IHC4gfx-1" value="USER" style="rounded=0;whiteSpace=wrap;html=1;fillColor=#fad9d5;strokeColor=#ae4132;fontStyle=1" vertex="1" parent="1">
          <mxGeometry x="345" y="15" width="136" height="40" as="geometry" />
        </mxCell>
        <mxCell id="qc5_DZCvJroy2IHC4gfx-12" style="edgeStyle=orthogonalEdgeStyle;rounded=0;orthogonalLoop=1;jettySize=auto;html=1;exitX=0.5;exitY=1;exitDx=0;exitDy=0;entryX=0.25;entryY=0;entryDx=0;entryDy=0;fontStyle=1" edge="1" parent="1" source="qc5_DZCvJroy2IHC4gfx-2" target="qc5_DZCvJroy2IHC4gfx-8">
          <mxGeometry relative="1" as="geometry" />
        </mxCell>
        <mxCell id="qc5_DZCvJroy2IHC4gfx-37" style="edgeStyle=orthogonalEdgeStyle;rounded=0;orthogonalLoop=1;jettySize=auto;html=1;exitX=0.25;exitY=1;exitDx=0;exitDy=0;entryX=0.25;entryY=0;entryDx=0;entryDy=0;fontStyle=1" edge="1" parent="1" source="qc5_DZCvJroy2IHC4gfx-2" target="qc5_DZCvJroy2IHC4gfx-18">
          <mxGeometry relative="1" as="geometry" />
        </mxCell>
        <mxCell id="qc5_DZCvJroy2IHC4gfx-2" value="Upload Files" style="rounded=0;whiteSpace=wrap;html=1;fontStyle=1" vertex="1" parent="1">
          <mxGeometry x="180" y="120" width="136" height="40" as="geometry" />
        </mxCell>
        <mxCell id="qc5_DZCvJroy2IHC4gfx-11" style="edgeStyle=orthogonalEdgeStyle;rounded=0;orthogonalLoop=1;jettySize=auto;html=1;exitX=0.5;exitY=1;exitDx=0;exitDy=0;fontStyle=1" edge="1" parent="1" source="qc5_DZCvJroy2IHC4gfx-3">
          <mxGeometry relative="1" as="geometry">
            <mxPoint x="413.0526315789475" y="229.9999999999999" as="targetPoint" />
          </mxGeometry>
        </mxCell>
        <mxCell id="qc5_DZCvJroy2IHC4gfx-39" style="edgeStyle=orthogonalEdgeStyle;rounded=0;orthogonalLoop=1;jettySize=auto;html=1;exitX=1;exitY=0.5;exitDx=0;exitDy=0;entryX=0.75;entryY=0;entryDx=0;entryDy=0;fontStyle=1" edge="1" parent="1" source="qc5_DZCvJroy2IHC4gfx-3" target="qc5_DZCvJroy2IHC4gfx-19">
          <mxGeometry relative="1" as="geometry">
            <Array as="points">
              <mxPoint x="481" y="180" />
              <mxPoint x="584" y="180" />
            </Array>
          </mxGeometry>
        </mxCell>
        <mxCell id="qc5_DZCvJroy2IHC4gfx-3" value="Input Query" style="rounded=0;whiteSpace=wrap;html=1;fontStyle=1" vertex="1" parent="1">
          <mxGeometry x="345" y="120" width="136" height="40" as="geometry" />
        </mxCell>
        <mxCell id="qc5_DZCvJroy2IHC4gfx-7" style="edgeStyle=orthogonalEdgeStyle;rounded=0;orthogonalLoop=1;jettySize=auto;html=1;exitX=0.5;exitY=0;exitDx=0;exitDy=0;entryX=0.75;entryY=1;entryDx=0;entryDy=0;fontStyle=1" edge="1" parent="1" source="qc5_DZCvJroy2IHC4gfx-4" target="qc5_DZCvJroy2IHC4gfx-1">
          <mxGeometry relative="1" as="geometry" />
        </mxCell>
        <mxCell id="qc5_DZCvJroy2IHC4gfx-4" value="Contextual Response" style="rounded=0;whiteSpace=wrap;html=1;fontStyle=1" vertex="1" parent="1">
          <mxGeometry x="540" y="120" width="136" height="40" as="geometry" />
        </mxCell>
        <mxCell id="qc5_DZCvJroy2IHC4gfx-13" style="edgeStyle=orthogonalEdgeStyle;rounded=0;orthogonalLoop=1;jettySize=auto;html=1;exitX=0.75;exitY=0;exitDx=0;exitDy=0;entryX=0.5;entryY=1;entryDx=0;entryDy=0;fontStyle=1" edge="1" parent="1" source="qc5_DZCvJroy2IHC4gfx-8" target="qc5_DZCvJroy2IHC4gfx-4">
          <mxGeometry relative="1" as="geometry" />
        </mxCell>
        <mxCell id="qc5_DZCvJroy2IHC4gfx-16" style="edgeStyle=orthogonalEdgeStyle;rounded=0;orthogonalLoop=1;jettySize=auto;html=1;exitX=0.25;exitY=1;exitDx=0;exitDy=0;entryX=0.25;entryY=0;entryDx=0;entryDy=0;fontStyle=1" edge="1" parent="1" source="qc5_DZCvJroy2IHC4gfx-8" target="qc5_DZCvJroy2IHC4gfx-15">
          <mxGeometry relative="1" as="geometry" />
        </mxCell>
        <mxCell id="qc5_DZCvJroy2IHC4gfx-8" value="Streamlit UI" style="rounded=0;whiteSpace=wrap;html=1;fillColor=#b0e3e6;strokeColor=#0e8088;gradientColor=none;fontStyle=1" vertex="1" parent="1">
          <mxGeometry x="346" y="230" width="136" height="50" as="geometry" />
        </mxCell>
        <mxCell id="qc5_DZCvJroy2IHC4gfx-17" style="edgeStyle=orthogonalEdgeStyle;rounded=0;orthogonalLoop=1;jettySize=auto;html=1;exitX=0.75;exitY=0;exitDx=0;exitDy=0;entryX=0.75;entryY=1;entryDx=0;entryDy=0;fontStyle=1" edge="1" parent="1" source="qc5_DZCvJroy2IHC4gfx-15" target="qc5_DZCvJroy2IHC4gfx-8">
          <mxGeometry relative="1" as="geometry" />
        </mxCell>
        <mxCell id="qc5_DZCvJroy2IHC4gfx-20" style="edgeStyle=orthogonalEdgeStyle;rounded=0;orthogonalLoop=1;jettySize=auto;html=1;exitX=0.5;exitY=1;exitDx=0;exitDy=0;entryX=0.5;entryY=0;entryDx=0;entryDy=0;fontStyle=1" edge="1" parent="1" source="qc5_DZCvJroy2IHC4gfx-15" target="qc5_DZCvJroy2IHC4gfx-18">
          <mxGeometry relative="1" as="geometry" />
        </mxCell>
        <mxCell id="qc5_DZCvJroy2IHC4gfx-22" style="edgeStyle=orthogonalEdgeStyle;rounded=0;orthogonalLoop=1;jettySize=auto;html=1;exitX=0.5;exitY=1;exitDx=0;exitDy=0;entryX=0.5;entryY=0;entryDx=0;entryDy=0;fontStyle=1" edge="1" parent="1" source="qc5_DZCvJroy2IHC4gfx-15" target="qc5_DZCvJroy2IHC4gfx-19">
          <mxGeometry relative="1" as="geometry" />
        </mxCell>
        <mxCell id="qc5_DZCvJroy2IHC4gfx-15" value="FastAPI" style="rounded=0;whiteSpace=wrap;html=1;fillColor=#fad7ac;strokeColor=#b46504;fontStyle=1" vertex="1" parent="1">
          <mxGeometry x="346" y="350" width="136" height="50" as="geometry" />
        </mxCell>
        <mxCell id="qc5_DZCvJroy2IHC4gfx-27" style="edgeStyle=orthogonalEdgeStyle;rounded=0;orthogonalLoop=1;jettySize=auto;html=1;exitX=0.5;exitY=1;exitDx=0;exitDy=0;entryX=0.5;entryY=0;entryDx=0;entryDy=0;fontStyle=1" edge="1" parent="1" source="qc5_DZCvJroy2IHC4gfx-18" target="qc5_DZCvJroy2IHC4gfx-24">
          <mxGeometry relative="1" as="geometry" />
        </mxCell>
        <mxCell id="qc5_DZCvJroy2IHC4gfx-18" value="Ingestion Agent" style="rounded=0;whiteSpace=wrap;html=1;fontStyle=1" vertex="1" parent="1">
          <mxGeometry x="60" y="440" width="136" height="50" as="geometry" />
        </mxCell>
        <mxCell id="qc5_DZCvJroy2IHC4gfx-36" style="edgeStyle=orthogonalEdgeStyle;rounded=0;orthogonalLoop=1;jettySize=auto;html=1;exitX=0.5;exitY=1;exitDx=0;exitDy=0;entryX=0.5;entryY=0;entryDx=0;entryDy=0;fontStyle=1" edge="1" parent="1" source="qc5_DZCvJroy2IHC4gfx-19" target="qc5_DZCvJroy2IHC4gfx-32">
          <mxGeometry relative="1" as="geometry" />
        </mxCell>
        <mxCell id="qc5_DZCvJroy2IHC4gfx-19" value="Query Agent" style="rounded=0;whiteSpace=wrap;html=1;fontStyle=1" vertex="1" parent="1">
          <mxGeometry x="482" y="440" width="136" height="50" as="geometry" />
        </mxCell>
        <mxCell id="qc5_DZCvJroy2IHC4gfx-28" style="edgeStyle=orthogonalEdgeStyle;rounded=0;orthogonalLoop=1;jettySize=auto;html=1;exitX=0.5;exitY=1;exitDx=0;exitDy=0;entryX=0.5;entryY=0;entryDx=0;entryDy=0;fontStyle=1" edge="1" parent="1" source="qc5_DZCvJroy2IHC4gfx-24" target="qc5_DZCvJroy2IHC4gfx-25">
          <mxGeometry relative="1" as="geometry" />
        </mxCell>
        <mxCell id="qc5_DZCvJroy2IHC4gfx-24" value="Text Extraction" style="rounded=0;whiteSpace=wrap;html=1;fontStyle=1" vertex="1" parent="1">
          <mxGeometry x="60" y="530" width="136" height="50" as="geometry" />
        </mxCell>
        <mxCell id="qc5_DZCvJroy2IHC4gfx-29" style="edgeStyle=orthogonalEdgeStyle;rounded=0;orthogonalLoop=1;jettySize=auto;html=1;exitX=0.5;exitY=1;exitDx=0;exitDy=0;entryX=0.5;entryY=0;entryDx=0;entryDy=0;fontStyle=1" edge="1" parent="1" source="qc5_DZCvJroy2IHC4gfx-25" target="qc5_DZCvJroy2IHC4gfx-26">
          <mxGeometry relative="1" as="geometry" />
        </mxCell>
        <mxCell id="qc5_DZCvJroy2IHC4gfx-25" value="Processing (Chunking)" style="rounded=0;whiteSpace=wrap;html=1;fontStyle=1" vertex="1" parent="1">
          <mxGeometry x="60" y="610" width="150" height="50" as="geometry" />
        </mxCell>
        <mxCell id="qc5_DZCvJroy2IHC4gfx-31" style="edgeStyle=orthogonalEdgeStyle;rounded=0;orthogonalLoop=1;jettySize=auto;html=1;exitX=0.5;exitY=1;exitDx=0;exitDy=0;entryX=0;entryY=0.5;entryDx=0;entryDy=0;fontStyle=1" edge="1" parent="1" source="qc5_DZCvJroy2IHC4gfx-26" target="qc5_DZCvJroy2IHC4gfx-30">
          <mxGeometry relative="1" as="geometry" />
        </mxCell>
        <mxCell id="qc5_DZCvJroy2IHC4gfx-46" style="edgeStyle=orthogonalEdgeStyle;rounded=0;orthogonalLoop=1;jettySize=auto;html=1;exitX=1;exitY=0.75;exitDx=0;exitDy=0;entryX=0.5;entryY=0;entryDx=0;entryDy=0;fontStyle=1" edge="1" parent="1" source="qc5_DZCvJroy2IHC4gfx-26" target="qc5_DZCvJroy2IHC4gfx-30">
          <mxGeometry relative="1" as="geometry" />
        </mxCell>
        <mxCell id="qc5_DZCvJroy2IHC4gfx-47" value="&lt;font style=&quot;font-size: 10px;&quot;&gt;2. Sends that embedding to the &lt;span data-start=&quot;590&quot; data-end=&quot;617&quot; style=&quot;&quot;&gt;Vector Store&amp;nbsp;&lt;/span&gt;&lt;/font&gt;&lt;div&gt;&lt;font style=&quot;font-size: 10px;&quot;&gt;&lt;span data-start=&quot;590&quot; data-end=&quot;617&quot; style=&quot;&quot;&gt;(ChromaDB)&lt;/span&gt; to perform &lt;span data-start=&quot;629&quot; data-end=&quot;650&quot; style=&quot;&quot;&gt;similarity search&lt;/span&gt;&lt;/font&gt;&lt;/div&gt;" style="edgeLabel;html=1;align=center;verticalAlign=middle;resizable=0;points=[];fontStyle=1" vertex="1" connectable="0" parent="qc5_DZCvJroy2IHC4gfx-46">
          <mxGeometry x="0.6476" relative="1" as="geometry">
            <mxPoint as="offset" />
          </mxGeometry>
        </mxCell>
        <mxCell id="qc5_DZCvJroy2IHC4gfx-26" value="Embedding Agent" style="rounded=0;whiteSpace=wrap;html=1;fontStyle=1" vertex="1" parent="1">
          <mxGeometry x="60" y="690" width="136" height="50" as="geometry" />
        </mxCell>
        <mxCell id="qc5_DZCvJroy2IHC4gfx-49" style="edgeStyle=orthogonalEdgeStyle;rounded=0;orthogonalLoop=1;jettySize=auto;html=1;exitX=1;exitY=0.5;exitDx=0;exitDy=0;entryX=0.5;entryY=1;entryDx=0;entryDy=0;fontStyle=1" edge="1" parent="1">
          <mxGeometry relative="1" as="geometry">
            <mxPoint x="470.0000000000002" y="865" as="sourcePoint" />
            <mxPoint x="487" y="670" as="targetPoint" />
            <Array as="points">
              <mxPoint x="549" y="865" />
              <mxPoint x="549" y="690" />
              <mxPoint x="487" y="690" />
            </Array>
          </mxGeometry>
        </mxCell>
        <mxCell id="qc5_DZCvJroy2IHC4gfx-51" value="&lt;font style=&quot;font-size: 10px;&quot;&gt;3. Gets &lt;span data-start=&quot;661&quot; data-end=&quot;697&quot; style=&quot;&quot;&gt;Top-K matching&amp;nbsp;&lt;/span&gt;&lt;/font&gt;&lt;div&gt;&lt;font style=&quot;font-size: 10px;&quot;&gt;&lt;span data-start=&quot;661&quot; data-end=&quot;697&quot; style=&quot;&quot;&gt;chunks from&amp;nbsp;&lt;/span&gt;ChromaDB&lt;/font&gt;&lt;/div&gt;" style="edgeLabel;html=1;align=center;verticalAlign=middle;resizable=0;points=[];fontStyle=1" vertex="1" connectable="0" parent="qc5_DZCvJroy2IHC4gfx-49">
          <mxGeometry x="-0.4574" relative="1" as="geometry">
            <mxPoint x="5" y="-33" as="offset" />
          </mxGeometry>
        </mxCell>
        <mxCell id="qc5_DZCvJroy2IHC4gfx-30" value="ChromaDB VectorStore" style="rounded=0;whiteSpace=wrap;html=1;fontStyle=1" vertex="1" parent="1">
          <mxGeometry x="345" y="840" width="155" height="50" as="geometry" />
        </mxCell>
        <mxCell id="qc5_DZCvJroy2IHC4gfx-52" style="edgeStyle=orthogonalEdgeStyle;rounded=0;orthogonalLoop=1;jettySize=auto;html=1;exitX=0;exitY=0.5;exitDx=0;exitDy=0;entryX=0.5;entryY=0;entryDx=0;entryDy=0;fontStyle=1" edge="1" parent="1" source="qc5_DZCvJroy2IHC4gfx-32" target="qc5_DZCvJroy2IHC4gfx-35">
          <mxGeometry relative="1" as="geometry" />
        </mxCell>
        <mxCell id="qc5_DZCvJroy2IHC4gfx-32" value="Coordinator Agent" style="rounded=0;whiteSpace=wrap;html=1;fontStyle=1" vertex="1" parent="1">
          <mxGeometry x="530" y="530" width="136" height="50" as="geometry" />
        </mxCell>
        <mxCell id="qc5_DZCvJroy2IHC4gfx-65" style="edgeStyle=orthogonalEdgeStyle;rounded=0;orthogonalLoop=1;jettySize=auto;html=1;exitX=0.5;exitY=1;exitDx=0;exitDy=0;entryX=0.5;entryY=0;entryDx=0;entryDy=0;fontStyle=1" edge="1" parent="1" source="qc5_DZCvJroy2IHC4gfx-34" target="qc5_DZCvJroy2IHC4gfx-64">
          <mxGeometry relative="1" as="geometry" />
        </mxCell>
        <mxCell id="qc5_DZCvJroy2IHC4gfx-34" value="LLM Response Agent" style="rounded=0;whiteSpace=wrap;html=1;fontStyle=1" vertex="1" parent="1">
          <mxGeometry x="760" y="620" width="136" height="50" as="geometry" />
        </mxCell>
        <mxCell id="qc5_DZCvJroy2IHC4gfx-44" style="edgeStyle=orthogonalEdgeStyle;rounded=0;orthogonalLoop=1;jettySize=auto;html=1;exitX=0.25;exitY=1;exitDx=0;exitDy=0;entryX=1;entryY=0.5;entryDx=0;entryDy=0;fontStyle=1" edge="1" parent="1" source="qc5_DZCvJroy2IHC4gfx-35" target="qc5_DZCvJroy2IHC4gfx-26">
          <mxGeometry relative="1" as="geometry" />
        </mxCell>
        <mxCell id="qc5_DZCvJroy2IHC4gfx-45" value="&lt;font style=&quot;font-size: 10px;&quot;&gt;1. Send Query to Embedding Agent to do Embedding&lt;/font&gt;" style="edgeLabel;html=1;align=center;verticalAlign=middle;resizable=0;points=[];fontStyle=1" vertex="1" connectable="0" parent="qc5_DZCvJroy2IHC4gfx-44">
          <mxGeometry x="0.7113" y="1" relative="1" as="geometry">
            <mxPoint x="89" y="-6" as="offset" />
          </mxGeometry>
        </mxCell>
        <mxCell id="qc5_DZCvJroy2IHC4gfx-54" style="edgeStyle=orthogonalEdgeStyle;rounded=0;orthogonalLoop=1;jettySize=auto;html=1;exitX=1;exitY=0.5;exitDx=0;exitDy=0;entryX=0;entryY=0.5;entryDx=0;entryDy=0;fontStyle=1" edge="1" parent="1" source="qc5_DZCvJroy2IHC4gfx-35" target="qc5_DZCvJroy2IHC4gfx-34">
          <mxGeometry relative="1" as="geometry" />
        </mxCell>
        <mxCell id="qc5_DZCvJroy2IHC4gfx-55" value="&lt;font style=&quot;font-size: 10px;&quot;&gt;4. Sends the question + retrieved&amp;nbsp;&lt;/font&gt;&lt;div&gt;&lt;font style=&quot;font-size: 10px;&quot;&gt;chunks to the &lt;span data-start=&quot;855&quot; data-end=&quot;877&quot; style=&quot;&quot;&gt;LLM Response Agent&lt;/span&gt;&lt;/font&gt;&lt;/div&gt;" style="edgeLabel;html=1;align=center;verticalAlign=middle;resizable=0;points=[];fontStyle=1" vertex="1" connectable="0" parent="qc5_DZCvJroy2IHC4gfx-54">
          <mxGeometry x="-0.0217" y="-1" relative="1" as="geometry">
            <mxPoint x="5" y="14" as="offset" />
          </mxGeometry>
        </mxCell>
        <mxCell id="qc5_DZCvJroy2IHC4gfx-35" value="Retrieval Agent" style="rounded=0;whiteSpace=wrap;html=1;fontStyle=1" vertex="1" parent="1">
          <mxGeometry x="430" y="620" width="136" height="50" as="geometry" />
        </mxCell>
        <mxCell id="qc5_DZCvJroy2IHC4gfx-66" style="edgeStyle=orthogonalEdgeStyle;rounded=0;orthogonalLoop=1;jettySize=auto;html=1;exitX=1;exitY=0.5;exitDx=0;exitDy=0;entryX=1;entryY=0.5;entryDx=0;entryDy=0;fontStyle=1" edge="1" parent="1" source="qc5_DZCvJroy2IHC4gfx-64" target="qc5_DZCvJroy2IHC4gfx-15">
          <mxGeometry relative="1" as="geometry" />
        </mxCell>
        <mxCell id="qc5_DZCvJroy2IHC4gfx-64" value="Final Response" style="rounded=0;whiteSpace=wrap;html=1;fontStyle=1" vertex="1" parent="1">
          <mxGeometry x="760" y="745" width="136" height="50" as="geometry" />
        </mxCell>
        <mxCell id="qc5_DZCvJroy2IHC4gfx-70" value="&lt;font style=&quot;font-size: 24px;&quot;&gt;Backend&lt;/font&gt;" style="text;whiteSpace=wrap;html=1;fontStyle=1" vertex="1" parent="1">
          <mxGeometry x="1020" y="580" width="130" height="35" as="geometry" />
        </mxCell>
        <mxCell id="qc5_DZCvJroy2IHC4gfx-76" value="&lt;font style=&quot;font-size: 24px;&quot;&gt;Frontend&lt;/font&gt;" style="text;whiteSpace=wrap;html=1;fontStyle=1" vertex="1" parent="1">
          <mxGeometry x="1020" y="180" width="130" height="35" as="geometry" />
        </mxCell>
      </root>
    </mxGraphModel>
  </diagram>
</mxfile>
